<?xml version="1.0" standalone="no"?>
<!DOCTYPE svg PUBLIC "-//W3C//DTD SVG 20010904//EN"
 "http://www.w3.org/TR/2001/REC-SVG-20010904/DTD/svg10.dtd">
<svg version="1.0" xmlns="http://www.w3.org/2000/svg"
 width="469.000000pt" height="184.000000pt" viewBox="0 0 469.000000 184.000000"
 preserveAspectRatio="xMidYMid meet">

<g transform="translate(0.000000,184.000000) scale(0.100000,-0.100000)"
fill="#000000" stroke="none">
<path d="M811 1518 c16 -48 18 -93 19 -439 0 -263 -4 -397 -11 -420 -40 -119
-155 -163 -244 -94 -53 40 -79 97 -79 175 0 71 11 98 57 147 l30 32 -34 21
c-67 42 -170 5 -211 -74 -28 -54 -28 -138 0 -192 21 -40 67 -88 113 -117 91
-56 286 -63 391 -15 75 35 140 97 169 161 24 51 24 60 29 422 4 320 7 375 22
408 l17 37 -143 0 -143 0 18 -52z"/>
<path d="M1447 1340 c-118 -20 -190 -88 -191 -180 -1 -34 5 -54 19 -70 24 -27
75 -50 111 -50 29 0 94 28 94 40 0 5 -13 22 -30 38 -26 26 -30 38 -30 82 0 46
4 56 34 86 30 30 40 34 89 34 45 0 61 -5 85 -25 36 -30 47 -79 32 -134 -22
-84 -83 -129 -268 -197 -197 -74 -262 -135 -262 -247 0 -154 150 -243 340
-202 200 43 234 47 322 32 46 -8 84 -14 85 -13 2 1 -2 18 -9 37 -6 20 -14 147
-17 304 -6 251 -8 273 -28 310 -44 83 -126 137 -234 155 -71 11 -74 11 -142 0z
m189 -757 c-4 -9 -31 -13 -89 -13 -108 0 -162 25 -194 90 -55 107 -7 203 150
305 29 18 70 47 92 63 l40 31 3 -232 c1 -127 0 -237 -2 -244z"/>
<path d="M2153 1314 c-104 -50 -180 -175 -209 -344 -38 -226 42 -420 191 -461
111 -31 210 48 282 225 l33 81 0 -299 c0 -280 1 -298 18 -291 74 32 119 46
175 56 l66 12 -22 41 c-22 40 -22 50 -25 508 l-3 467 -25 -9 c-42 -16 -114
-11 -209 15 -119 33 -202 33 -272 -1z m262 -20 l37 -15 -4 -197 c-5 -210 -14
-256 -73 -373 -26 -51 -77 -99 -104 -99 -31 0 -67 37 -92 92 -22 48 -24 67
-24 193 0 119 4 151 23 214 25 79 55 133 93 167 42 38 85 43 144 18z"/>
<path d="M3937 1330 c-220 -55 -364 -271 -328 -494 44 -271 305 -409 547 -291
71 35 156 128 184 201 27 73 21 106 -7 42 -27 -59 -95 -134 -146 -160 -51 -25
-132 -26 -189 0 -79 35 -148 133 -164 231 -7 43 -6 44 17 38 94 -25 142 -29
212 -18 171 28 271 117 271 241 0 86 -47 154 -134 193 -51 24 -199 33 -263 17z
m173 -38 c94 -94 50 -312 -76 -372 -37 -19 -57 -22 -108 -18 -34 3 -73 11 -86
18 -21 11 -22 16 -16 83 4 39 13 94 22 124 45 155 186 243 264 165z"/>
<path d="M2970 1312 c-44 -19 -168 -52 -192 -52 -23 0 -23 -8 2 -61 17 -39 20
-66 20 -255 0 -308 20 -387 107 -426 81 -36 168 -6 247 84 48 55 114 179 138
258 13 44 13 41 18 -100 8 -207 24 -232 156 -234 40 0 75 1 78 4 3 3 -1 30 -9
60 -12 43 -15 130 -15 397 l0 342 -59 -24 c-32 -13 -88 -29 -125 -36 -36 -7
-66 -15 -66 -19 0 -4 8 -22 18 -41 13 -27 17 -59 17 -149 -1 -100 -4 -125 -28
-189 -76 -208 -189 -300 -244 -198 -16 28 -19 71 -23 343 l-5 310 -35 -14z"/>
</g>
</svg>
